<?xml version="1.0" encoding="UTF-8"?>
<svg preserveAspectRatio="xMidYMid slice" xmlns="http://www.w3.org/2000/svg" width="68px" height="13px" viewBox="0 0 1440 296" fill="none">
  <g clip-path="url(#clip0_315_2664)">
    <g clip-path="url(#clip1_315_2664)">
      <path d="M3969.19 -1340.14C4245.34 -502.001 3785.45 362.284 2942 590.266C2492.91 711.658 2025.62 628.111 1645.19 396.971L1645.17 397.048C519.367 -287.263 -75.2996 -2.84276 -549.729 785.69L-550.302 783.991C-690.93 1018.5 -919.141 1200.93 -1210.59 1279.7C-1833.05 1447.94 -2502.86 1082.91 -2706.67 464.36C-2910.48 -154.185 -2571.07 -792.031 -1948.63 -960.282C-1657.18 -1039.04 -1355.92 -999.745 -1096.39 -873.411L-1096.96 -875.136C-222.991 -451.058 446.529 -508.301 974.166 -1639.6L974.148 -1639.53C1152.55 -2021.74 1492.85 -2323.59 1941.94 -2444.96C2785.39 -2672.94 3693.04 -2178.29 3969.21 -1340.14" fill="#061E51"></path>
    </g>
  </g>
  <defs>
    <clipPath id="clip0_315_2664">
      <rect width="1440" height="296" fill="white"></rect>
    </clipPath>
    <clipPath id="clip1_315_2664">
      <rect width="6488.51" height="4681.35" fill="white" transform="translate(3309.36 2485.3) rotate(-166.811)"></rect>
    </clipPath>
  </defs>
</svg>
